{"title":"Chatroom.2010.720p.BluRay.x264-7SinS","uid":6339199,"size":4726861542,"categoryP":"video","categoryS":"hd___movies","magnet":"?xt=urn:btih:b09e2adbd9a0d2c7cb3ed47fb204b9763deccb44&amp;dn=Chatroom.2010.720p.BluRay.x264-7SinS&amp;tr=udp%3A%2F%2Ftracker.openbittorrent.com%3A80&amp;tr=udp%3A%2F%2Fopen.demonii.com%3A1337&amp;tr=udp%3A%2F%2Ftracker.coppersurfer.tk%3A6969&amp;tr=udp%3A%2F%2Fexodus.desync.com%3A6969","seeders":1,"leechers":1,"uploader":"HolyRoses","files":-1,"time":1303584176,"description":"IMDb:    &lt;a href=&quot;\nhttp://www.imdb.com/title/tt1319704/&quot; rel=&quot;nofollow&quot; target=&quot;_NEW&quot;&gt;\nhttp://www.imdb.com/title/tt1319704/&lt;/a&gt;\n\nPoster:    &lt;a href=&quot;\nhttp://img62.imageshack.us/img62/5190/chatroomver4.jpg&quot; rel=&quot;nofollow&quot; target=&quot;_NEW&quot;&gt;\nhttp://img62.imageshack.us/img62/5190/chatroomver4.jpg&lt;/a&gt;\n\n----\n\n      MOVIE.............: Chatroom.2010.720p.BluRay.x264-7SinS\n      YEAR..............: 2010\n      URL...............: http://www.imdb.com/title/tt1319704/\n      RESOLUTION........: 1280x720\n      AUDIO FORMAT......: dts @ 1536Kb/s\n      SPOKEN LANGUAGES..: English\n      SUBS..............: NONE\n\n\n-HR\n\n\n----\n\nmediainfo:\n\nGeneral\nComplete name                    : Chatroom.2010.720p.BluRay.x264-7SinS/7sins-chatroom-2010-720p-x264.mkv\nFormat                           : Matroska\nFile size                        : 4.36 GiB\nDuration                         : 1h 37mn\nOverall bit rate                 : 6 406 Kbps\nEncoded date                     : UTC 2011-04-21 15:26:08\nWriting application              : mkvmerge v4.6.0 ('Still Crazy After All These Years') built on Mar 10 2011 02:50:32\nWriting library                  : libebml v1.2.0 + libmatroska v1.1.0\n\nVideo\nID                               : 1\nFormat                           : AVC\nFormat/Info                      : Advanced Video Codec\nFormat profile                   : &lt;a class=&quot;__cf_email__&quot; href=&quot;/cdn-cgi/l/email-protection&quot; data-cfemail=&quot;7c34151b143c3048524d&quot;&gt;[email&amp;#160;protected]&lt;/a&gt;&lt;script cf-hash='f9e31' type=&quot;text/javascript&quot;&gt;\n/* &lt;![CDATA[ */!function(){try{var t=&quot;currentScript&quot;in document?document.currentScript:function(){for(var t=document.getElementsByTagName(&quot;script&quot;),e=t.length;e--;)if(t[e].getAttribute(&quot;cf-hash&quot;))return t[e]}();if(t&amp;&amp;t.previousSibling){var e,r,n,i,c=t.previousSibling,a=c.getAttribute(&quot;data-cfemail&quot;);if(a){for(e=&quot;&quot;,r=parseInt(a.substr(0,2),16),n=2;a.length-n;n+=2)i=parseInt(a.substr(n,2),16)^r,e+=String.fromCharCode(i);e=document.createTextNode(e),c.parentNode.replaceChild(e,c)}}}catch(u){}}();/* ]]&gt; */&lt;/script&gt;\nFormat settings, CABAC           : Yes\nFormat settings, ReFrames        : 5 frames\nFormat settings, GOP             : M=4, N=16\nCodec ID                         : V_MPEG4/ISO/AVC\nDuration                         : 1h 37mn\nBit rate                         : 4 896 Kbps\nWidth                            : 1 280 pixels\nHeight                           : 688 pixels\nDisplay aspect ratio             : 1.860\nFrame rate                       : 23.976 fps\nColor space                      : YUV\nChroma subsampling               : 4:2:0\nBit depth                        : 8 bits\nScan type                        : Progressive\nBits/(Pixel*Frame)               : 0.232\nStream size                      : 3.25 GiB (74%)\nWriting library                  : x264 core 115 r1937 aa21558\nEncoding settings                : cabac=1 / ref=5 / deblock=1:0:0 / analyse=0x3:0x133 / me=umh / subme=7 / psy=1 / psy_rd=1.00:0.00 / mixed_ref=1 / me_range=16 / chroma_me=1 / trellis=1 / 8x8dct=1 / cqm=0 / deadzone=21,11 / fast_pskip=0 / chroma_qp_offset=-2 / threads=12 / sliced_threads=0 / nr=0 / decimate=1 / interlaced=0 / bluray_compat=0 / constrained_intra=0 / bframes=3 / b_pyramid=2 / b_adapt=1 / b_bias=0 / direct=1 / weightb=1 / open_gop=0 / weightp=2 / keyint=250 / keyint_min=23 / scenecut=40 / intra_refresh=0 / rc_lookahead=40 / rc=2pass / mbtree=1 / bitrate=4896 / ratetol=1.0 / qcomp=0.60 / qpmin=0 / qpmax=69 / qpstep=4 / cplxblur=20.0 / qblur=0.5 / ip_ratio=1.40 / aq=1:1.00\nLanguage                         : English\n\nAudio\nID                               : 2\nFormat                           : DTS\nFormat/Info                      : Digital Theater Systems\nCodec ID                         : A_DTS\nDuration                         : 1h 37mn\nBit rate mode                    : Constant\nBit rate                         : 1 510 Kbps\nChannel(s)                       : 6 channels\nChannel positions                : Front: L C R, Side: L R, LFE\nSampling rate                    : 48.0 KHz\nBit depth                        : 24 bits\nStream size                      : 1.03 GiB (24%)\nLanguage                         : English\n\n\n\n","torrent":{"xt":"urn:btih:b09e2adbd9a0d2c7cb3ed47fb204b9763deccb44","amp;dn":"Chatroom.2010.720p.BluRay.x264-7SinS","amp;tr":["udp%3A%2F%2Ftracker.openbittorrent.com%3A80","udp%3A%2F%2Fopen.demonii.com%3A1337","udp%3A%2F%2Ftracker.coppersurfer.tk%3A6969","udp%3A%2F%2Fexodus.desync.com%3A6969"],"infoHash":"b09e2adbd9a0d2c7cb3ed47fb204b9763deccb44","infoHashBuffer":{"type":"Buffer","data":[176,158,42,219,217,160,210,199,203,62,212,127,178,4,185,118,61,236,203,68]},"announce":[],"urlList":[]}}